<svg width="131" height="52" viewBox="0 0 131 52" fill="none" xmlns="http://www.w3.org/2000/svg">
<rect width="131" height="52" rx="10" fill="white"/>
<path d="M36.8398 26.6621C35.2318 26.1999 34.0599 25.6335 33.3242 24.9629C32.5951 24.2858 32.2305 23.4525 32.2305 22.4629C32.2305 21.3431 32.6764 20.4186 33.5684 19.6895C34.4668 18.9538 35.6322 18.5859 37.0645 18.5859C38.041 18.5859 38.9102 18.7747 39.6719 19.1523C40.4401 19.5299 41.0326 20.0508 41.4492 20.7148C41.8724 21.3789 42.084 22.1048 42.084 22.8926H40.1992C40.1992 22.0332 39.9258 21.3594 39.3789 20.8711C38.832 20.3763 38.0605 20.1289 37.0645 20.1289C36.14 20.1289 35.4173 20.334 34.8965 20.7441C34.3822 21.1478 34.125 21.7109 34.125 22.4336C34.125 23.013 34.3691 23.5046 34.8574 23.9082C35.3522 24.3053 36.1888 24.6699 37.3672 25.002C38.5521 25.334 39.4766 25.7018 40.1406 26.1055C40.8112 26.5026 41.306 26.9681 41.625 27.502C41.9505 28.0358 42.1133 28.6641 42.1133 29.3867C42.1133 30.5391 41.6641 31.4635 40.7656 32.1602C39.8672 32.8503 38.666 33.1953 37.1621 33.1953C36.1855 33.1953 35.2741 33.0098 34.4277 32.6387C33.5814 32.2611 32.9271 31.7467 32.4648 31.0957C32.0091 30.4447 31.7812 29.7057 31.7812 28.8789H33.666C33.666 29.7383 33.9818 30.4186 34.6133 30.9199C35.2513 31.4147 36.1009 31.6621 37.1621 31.6621C38.1517 31.6621 38.9102 31.4603 39.4375 31.0566C39.9648 30.653 40.2285 30.1029 40.2285 29.4062C40.2285 28.7096 39.9844 28.1725 39.4961 27.7949C39.0078 27.4108 38.1224 27.0332 36.8398 26.6621ZM46.2051 33H44.3984V22.4336H46.2051V33ZM44.252 19.6309C44.252 19.3379 44.3398 19.0905 44.5156 18.8887C44.6979 18.6868 44.9648 18.5859 45.3164 18.5859C45.668 18.5859 45.9349 18.6868 46.1172 18.8887C46.2995 19.0905 46.3906 19.3379 46.3906 19.6309C46.3906 19.9238 46.2995 20.168 46.1172 20.3633C45.9349 20.5586 45.668 20.6562 45.3164 20.6562C44.9648 20.6562 44.6979 20.5586 44.5156 20.3633C44.3398 20.168 44.252 19.9238 44.252 19.6309ZM48.6758 27.6289C48.6758 25.9818 49.0566 24.6732 49.8184 23.7031C50.5801 22.7266 51.5892 22.2383 52.8457 22.2383C54.1348 22.2383 55.1406 22.694 55.8633 23.6055L55.9512 22.4336H57.6016V32.7461C57.6016 34.1133 57.1947 35.1908 56.3809 35.9785C55.5736 36.7663 54.4863 37.1602 53.1191 37.1602C52.3574 37.1602 51.612 36.9974 50.8828 36.6719C50.1536 36.3464 49.597 35.9004 49.2129 35.334L50.1504 34.25C50.9251 35.207 51.8724 35.6855 52.9922 35.6855C53.8711 35.6855 54.5547 35.4382 55.043 34.9434C55.5378 34.4486 55.7852 33.752 55.7852 32.8535V31.9453C55.0625 32.7786 54.0762 33.1953 52.8262 33.1953C51.5892 33.1953 50.5866 32.6973 49.8184 31.7012C49.0566 30.7051 48.6758 29.3477 48.6758 27.6289ZM50.4922 27.834C50.4922 29.0254 50.7363 29.9629 51.2246 30.6465C51.7129 31.3236 52.3965 31.6621 53.2754 31.6621C54.4147 31.6621 55.2513 31.1445 55.7852 30.1094V25.2852C55.2318 24.276 54.4017 23.7715 53.2949 23.7715C52.416 23.7715 51.7292 24.1133 51.2344 24.7969C50.7396 25.4805 50.4922 26.4928 50.4922 27.834ZM62.0449 22.4336L62.1035 23.7617C62.9108 22.7461 63.9655 22.2383 65.2676 22.2383C67.5007 22.2383 68.627 23.498 68.6465 26.0176V33H66.8398V26.0078C66.8333 25.2461 66.6576 24.6829 66.3125 24.3184C65.974 23.9538 65.4434 23.7715 64.7207 23.7715C64.1348 23.7715 63.6204 23.9277 63.1777 24.2402C62.735 24.5527 62.39 24.9629 62.1426 25.4707V33H60.3359V22.4336H62.0449ZM86.625 18.7812V28.4492C86.6185 29.7904 86.1953 30.8874 85.3555 31.7402C84.5221 32.5931 83.3893 33.0716 81.957 33.1758L81.459 33.1953C79.903 33.1953 78.6628 32.7754 77.7383 31.9355C76.8138 31.0957 76.3451 29.9401 76.332 28.4688V18.7812H78.1875V28.4102C78.1875 29.4388 78.4707 30.2396 79.0371 30.8125C79.6035 31.3789 80.4108 31.6621 81.459 31.6621C82.5202 31.6621 83.3307 31.3789 83.8906 30.8125C84.457 30.2461 84.7402 29.4486 84.7402 28.4199V18.7812H86.625ZM98.2266 27.834C98.2266 29.4421 97.8587 30.7376 97.123 31.7207C96.3874 32.7038 95.3913 33.1953 94.1348 33.1953C92.8522 33.1953 91.8431 32.7884 91.1074 31.9746V37.0625H89.3008V22.4336H90.9512L91.0391 23.6055C91.7747 22.694 92.7969 22.2383 94.1055 22.2383C95.375 22.2383 96.3776 22.7168 97.1133 23.6738C97.8555 24.6309 98.2266 25.9622 98.2266 27.668V27.834ZM96.4199 27.6289C96.4199 26.4375 96.166 25.4967 95.6582 24.8066C95.1504 24.1165 94.4538 23.7715 93.5684 23.7715C92.4746 23.7715 91.6543 24.2565 91.1074 25.2266V30.2754C91.6478 31.2389 92.4746 31.7207 93.5879 31.7207C94.4538 31.7207 95.1406 31.3789 95.6484 30.6953C96.1628 30.0052 96.4199 28.9831 96.4199 27.6289Z" fill="#3C61E1"/>
</svg>
